# xmcd CD database file
#
# Track frame offsets:
#	225
#	19533
#	35053
#	51262
#	68346
#	84121
#	102108
#	121965
#	140358
#	159605
#	173424
#	192116
#	210528
#
# Disc length: 3011 seconds
#
# Revision: 0
# Processed by: cddbd v1.5.2PL0 Copyright (c) Steve Scherf et al.
# Submitted via: CDex 1.95
#
DISCID=9c0bc00d
DTITLE=Alan Jackson - Like Red On A Rose
DYEAR=2006
DGENRE=Country
TTITLE0=Alan Jackson - Anywhere On Earth You Are
TTITLE1=Alan Jackson - Good Imitation Of The Blues
TTITLE2=Alan Jackson - Like Red On A Rose
TTITLE3=Alan Jackson - Nobody Said That It Would Be Easy
TTITLE4=Alan Jackson - Don't Change On Me
TTITLE5=Alan Jackson - The Firefly's Song
TTITLE6=Alan Jackson - Wait A Minute
TTITLE7=Alan Jackson - Had It Not Been You
TTITLE8=Alan Jackson - A Woman's Love
TTITLE9=Alan Jackson - Don't Ask Why
TTITLE10=Alan Jackson - As Lovely As You
TTITLE11=Alan Jackson - Where Do I Go From Here (A Trucker Song)
TTITLE12=Alan Jackson - Bluebird
EXTD=YEAR: 2006
EXTT0=
EXTT1=
EXTT2=
EXTT3=
EXTT4=
EXTT5=
EXTT6=
EXTT7=
EXTT8=
EXTT9=
EXTT10=
EXTT11=
EXTT12=
PLAYORDER=
